<svg version="1.1" id="Layer_1" xmlns="http://www.w3.org/2000/svg" x="0" y="0" viewBox="0 0 1000 1000" style="enable-background:new 0 0 1000 1000" xml:space="preserve">
    <style>
        .st11{fill:#3f4347}
    </style>
    <linearGradient id="SVGID_1_" gradientUnits="userSpaceOnUse" x1="633.657" y1="139.431" x2="633.657" y2="612.118">
        <stop offset=".14" style="stop-color:#ffa404"/>
        <stop offset=".877" style="stop-color:#ff2a48"/>
    </linearGradient>
    <path d="M599.7 192.8c3.5 4.1 6.8 8.3 9.9 12.6h61.2v60.9c4.2 3.1 8.4 6.3 12.4 9.7 10.4 8.8 19.8 18.8 28.2 29.5 9.2 11.7 16.9 24.5 23.2 37.9V201.8c0-8.2-1.7-16.2-4.7-23.4-4.6-10.8-12.2-20-21.8-26.4-9.6-6.5-21.3-10.3-33.7-10.3H532.8c13.3 6.3 25.9 13.9 37.5 23 10.6 8.2 20.6 17.7 29.4 28.1z" style="fill:url(#SVGID_1_)"/>
    <linearGradient id="SVGID_2_" gradientUnits="userSpaceOnUse" x1="366.631" y1="139.431" x2="366.631" y2="612.118">
        <stop offset=".14" style="stop-color:#ffa404"/>
        <stop offset=".877" style="stop-color:#ff2a48"/>
    </linearGradient>
    <path d="M400.1 559.1c-3.4-4-6.6-8-9.6-12.2h-61.4v-61.3c-4.3-3.1-8.4-6.3-12.4-9.8-10.4-8.8-19.8-18.8-28.2-29.5-9.1-11.7-16.9-24.5-23.2-37.9v142c0 8.2 1.7 16.2 4.7 23.4 4.6 10.8 12.2 20 21.8 26.4 9.6 6.5 21.3 10.3 33.7 10.3h142.4c-13.6-6.3-26.5-14.1-38.3-23.4-10.7-8.2-20.6-17.7-29.5-28z" style="fill:url(#SVGID_2_)"/>
    <linearGradient id="SVGID_3_" gradientUnits="userSpaceOnUse" x1="499.927" y1="139.431" x2="499.927" y2="612.118">
        <stop offset=".14" style="stop-color:#ffa404"/>
        <stop offset=".877" style="stop-color:#ff2a48"/>
    </linearGradient>
    <path d="M696.3 317.2c-7.6-9.7-16.1-18.7-25.5-26.7-15.8-13.5-34-24.3-53.8-31.8h-.1c-7.5-19.7-18.2-37.8-31.7-53.6-8-9.4-16.9-17.9-26.7-25.5-30.7-23.9-69.5-38.2-111.4-38.3H325.5c-8.2 0-16.2 1.7-23.4 4.7-10.8 4.6-20 12.2-26.4 21.8-6.5 9.6-10.3 21.3-10.3 33.7v121.9c.1 41.8 14.4 80.5 38.2 111.2 7.6 9.7 16.1 18.7 25.5 26.7 15.8 13.5 34 24.3 53.8 31.8h.1c7.5 19.7 18.2 37.8 31.7 53.6 8 9.4 16.9 17.9 26.7 25.5 30.7 23.9 69.5 38.2 111.4 38.3h121.6c8.2 0 16.2-1.7 23.4-4.7 10.8-4.6 20-12.2 26.4-21.8 6.5-9.6 10.3-21.3 10.3-33.7V428.4c0-41.8-14.3-80.5-38.2-111.2zm-73.8-41.3c0-.1 0-.1 0 0v-.1.1zM377.4 476v.1-.1zm293.4 70.7h-118c-27.4 0-52.3-9.2-72.3-24.8-6.8-5.3-13-11.4-18.5-18-10.6-12.9-18.6-28-23-44.5v-.1c-1.7-6.1-2.8-12.5-3.4-19.1-.4-3.7-.6-7.5-.6-11.4 0-16.4 3.3-31.8 9.3-45.9 8.9-21.1 23.9-39.2 42.8-51.9 16.8-11.3 36.5-18.4 58-19.8-.6-4.8-1.4-9.5-2.5-13.7-3.7-13.8-10.2-26.4-19.3-37.4-2.6-3.1-5.3-6-8.3-8.8-11.3 2.4-22.3 5.8-32.7 10.2-32.6 13.8-60.3 36.8-79.9 65.8-16.9 25-27.8 54.7-30.4 86.5v.2c-6.6-5.5-12.7-11.7-18-18.5-15.5-19.9-24.7-44.7-24.8-72V205.2h118c27.4 0 52.3 9.2 72.3 24.8 6.8 5.3 13 11.4 18.5 18 10.6 12.9 18.6 28 23 44.5v.1c1.7 6.1 2.8 12.5 3.4 19.1.4 3.7.6 7.5.6 11.4 0 16.4-3.3 31.8-9.3 45.9-8.9 21.1-23.9 39.2-42.8 51.9-16.8 11.3-36.5 18.4-58 19.8.6 4.8 1.4 9.5 2.5 13.7 3.7 13.8 10.2 26.4 19.3 37.4 2.6 3.1 5.4 6 8.3 8.8 11.3-2.4 22.3-5.8 32.7-10.2 32.6-13.8 60.3-36.8 79.9-65.8 16.9-25 27.8-54.7 30.4-86.5v-.2c6.6 5.5 12.7 11.7 18 18.5 15.5 19.9 24.7 44.7 24.8 72v118.3z" style="fill:url(#SVGID_3_)"/>
    <linearGradient id="SVGID_4_" gradientUnits="userSpaceOnUse" x1="407.366" y1="393.114" x2="313.956" y2="394.724">
        <stop offset="0" style="stop-color:#29266d"/>
        <stop offset="1" style="stop-color:#29266d;stop-opacity:0"/>
    </linearGradient>
    <path d="M377.4 475.8c-4.1-15.1-6.2-30.9-6.2-47.1 0-5 .2-10 .6-14.9-6.6-5.5-12.7-11.7-18-18.5-15.5-19.9-24.7-44.7-24.8-72V296h-63.7v27.4c.1 41.8 14.4 80.5 38.2 111.2 7.6 9.7 16.1 18.7 25.5 26.7 15.8 13.5 34 24.3 53.8 31.8h.1c0-.1-.1-.2-.1-.2-2-5.6-3.8-11.3-5.4-17.1z" style="fill:url(#SVGID_4_)"/>
    <linearGradient id="SVGID_5_" gradientUnits="userSpaceOnUse" x1="1523.797" y1="-2613.587" x2="1430.386" y2="-2611.976" gradientTransform="rotate(180 1058.215 -1127.534)">
        <stop offset="0" style="stop-color:#29266d"/>
        <stop offset="1" style="stop-color:#29266d;stop-opacity:0"/>
    </linearGradient>
    <path d="M622.6 275.8c4.1 15.1 6.2 30.9 6.2 47.1 0 5-.2 10-.6 14.9 6.6 5.5 12.7 11.7 18 18.5 15.5 19.9 24.7 44.7 24.8 72v27.4h63.7v-27.4c-.1-41.8-14.4-80.5-38.2-111.2-7.6-9.7-16.1-18.7-25.5-26.7-15.8-13.5-34-24.3-53.8-31.8h-.1c0 .1.1.2.1.2 2 5.6 3.8 11.2 5.4 17z" style="fill:url(#SVGID_5_)"/>
    <path d="M377.4 476v.1-.1z" style="fill:#231f20"/>
    <path class="st11" d="M266 667.4h30.4v106.5h65.8v24.7H266V667.4zM485.5 697.8v100.8h-27.7v-12c-3.9 4.4-8.5 7.7-13.9 10s-11.2 3.5-17.4 3.5c-13.2 0-23.7-3.8-31.5-11.4-7.8-7.6-11.6-18.9-11.6-33.9v-57h29.2v52.7c0 16.2 6.8 24.4 20.4 24.4 7 0 12.6-2.3 16.9-6.8 4.2-4.6 6.4-11.3 6.4-20.3v-49.9h29.2zM539.9 793.5c-8.6-4.4-15.2-10.6-20.1-18.5-4.8-7.9-7.2-16.8-7.2-26.8s2.4-18.9 7.2-26.8c4.8-7.9 11.5-14 20.1-18.5 8.6-4.4 18.2-6.7 29-6.7 10.6 0 19.9 2.2 27.8 6.7 7.9 4.4 13.7 10.8 17.3 19l-22.7 12.2c-5.3-9.2-12.8-13.9-22.7-13.9-7.6 0-13.9 2.5-18.9 7.5-5 5-7.5 11.8-7.5 20.4 0 8.6 2.5 15.4 7.5 20.4 5 5 11.3 7.5 18.9 7.5 10 0 17.6-4.6 22.7-13.9l22.7 12.4c-3.6 8-9.4 14.2-17.3 18.7s-17.2 6.7-27.8 6.7c-10.8.2-20.4-2-29-6.4zM638.4 697.8h29.2v100.8h-29.2V697.8zM702.4 697.8h29.2v100.8h-29.2V697.8z"/>
    <linearGradient id="SVGID_6_" gradientUnits="userSpaceOnUse" x1="669.993" y1="668.708" x2="636.203" y2="669.291">
        <stop offset=".14" style="stop-color:#ffa404"/>
        <stop offset=".877" style="stop-color:#ff2a48"/>
    </linearGradient>
    <path d="M669.9 667.3c0-.2 0-.3-.1-.5 0-.4-.1-.7-.2-1.1 0-.2-.1-.4-.1-.6-.1-.3-.1-.6-.2-.9-.1-.2-.1-.4-.2-.6l-.3-.9c-.1-.2-.1-.4-.2-.6-.2-.4-.3-.7-.5-1-.1-.1-.1-.2-.2-.3-.2-.4-.5-.9-.8-1.3-.1-.1-.2-.3-.3-.4-.1-.2-.3-.4-.4-.6 0-.1-.1-.1-.1-.2-.3-.3-.5-.6-.8-.9l-.3-.3c-.3-.3-.7-.7-1.1-1l-.1-.1c-.2-.2-.5-.4-.8-.6-.2-.1-.3-.2-.5-.3-.2-.2-.5-.3-.7-.5l-.6-.3c-.3-.1-.5-.3-.8-.4l-.6-.3c-.3-.1-.6-.3-.8-.4-.1 0-.1-.1-.2-.1-1.9-.7-3.9-1.1-6-1.1-1.2 0-2.4.1-3.5.4-.5.1-1 .2-1.5.4l-.9.3c-.2.1-.4.1-.6.2h-.1c-.4.2-.8.4-1.3.6-.1.1-.3.2-.4.2-.3.2-.6.3-.9.5-.1.1-.3.2-.4.3-.8.6-1.6 1.2-2.3 1.9l-.3.3c-.3.3-.5.6-.8.9-.1.1-.2.2-.2.3l-.9 1.2c-.3.4-.5.8-.8 1.2-.1.1-.1.2-.2.3-.2.4-.4.8-.6 1.3 0 .1 0 .1-.1.2-.2.4-.3.8-.4 1.2 0 .1-.1.2-.1.4-.1.5-.3.9-.4 1.4 0 .1 0 .2-.1.3-.1.4-.1.8-.2 1.3v.3c0 .5-.1 1.1-.1 1.6s0 1.1.1 1.6v.3c.1.5.1 1 .2 1.5v.1c.1.3.1.6.2.9 0 .2.1.3.1.5 0 .1.1.2.1.3.1.3.2.6.3.8 0 .1.1.2.1.3.1.2.2.5.3.7.1.2.2.5.3.7l.3.6c.1.2.3.5.4.7.1.2.2.4.4.6.2.3.4.5.6.8.1.1.2.3.3.4l.1.1c.1.2.3.3.5.5l.6.6.6.6c.2.2.4.4.6.5l.2.2c.2.2.5.4.7.5.1.1.2.1.2.2.4.3.9.6 1.3.8.4.2.9.4 1.3.6.1.1.3.1.4.2.3.1.7.3 1 .4.2.1.4.1.5.2.3.1.7.2 1 .3.2 0 .4.1.6.1.4.1.7.1 1.1.2.2 0 .3 0 .5.1.5.1 1.1.1 1.6.1h11.3c.8 0 1.5-.2 2.2-.4 1-.4 1.9-1.1 2.5-2 .6-.9 1-2 1-3.1v-11.3c.6-.9.6-1.4.5-1.9zm-5.8 12.6h-11c-6 0-10.9-4.9-10.9-10.9s4.9-10.9 10.9-10.9S664 663 664 669v10.9z" style="fill:url(#SVGID_6_)"/>
    <linearGradient id="SVGID_7_" gradientUnits="userSpaceOnUse" x1="733.877" y1="668.708" x2="700.087" y2="669.291">
        <stop offset=".14" style="stop-color:#ffa404"/>
        <stop offset=".877" style="stop-color:#ff2a48"/>
    </linearGradient>
    <path d="M733.8 667.3c0-.2 0-.3-.1-.5 0-.4-.1-.7-.2-1.1 0-.2-.1-.4-.1-.6-.1-.3-.1-.6-.2-.9-.1-.2-.1-.4-.2-.6l-.3-.9c-.1-.2-.1-.4-.2-.6-.2-.4-.3-.7-.5-1-.1-.1-.1-.2-.2-.3-.2-.4-.5-.9-.8-1.3-.1-.1-.2-.3-.3-.4-.1-.2-.3-.4-.4-.6 0-.1-.1-.1-.1-.2-.3-.3-.5-.6-.8-.9l-.3-.3c-.3-.3-.7-.7-1.1-1l-.1-.1c-.2-.2-.5-.4-.8-.6-.2-.1-.3-.2-.5-.3-.2-.2-.5-.3-.7-.5l-.6-.3c-.3-.1-.5-.3-.8-.4l-.6-.3c-.3-.1-.6-.3-.8-.4-.1 0-.1-.1-.2-.1-1.9-.7-3.9-1.1-6-1.1-1.2 0-2.4.1-3.5.4-.5.1-1 .2-1.5.4l-.9.3c-.2.1-.4.1-.6.2h-.1c-.4.2-.8.4-1.3.6-.1.1-.3.2-.4.2-.3.2-.6.3-.9.5-.1.1-.3.2-.4.3-.8.6-1.6 1.2-2.3 1.9l-.3.3c-.3.3-.5.6-.8.9-.1.1-.2.2-.2.3l-.9 1.2c-.3.4-.5.8-.8 1.2-.1.1-.1.2-.2.3-.2.4-.4.8-.6 1.3 0 .1 0 .1-.1.2-.2.4-.3.8-.4 1.2 0 .1-.1.2-.1.4-.1.5-.3.9-.4 1.4 0 .1 0 .2-.1.3-.1.4-.1.8-.2 1.3v.3c0 .5-.1 1.1-.1 1.6s0 1.1.1 1.6v.3c.1.5.1 1 .2 1.5v.1c.1.3.1.6.2.9 0 .2.1.3.1.5 0 .1.1.2.1.3.1.3.2.6.3.8 0 .1.1.2.1.3.1.2.2.5.3.7.1.2.2.5.3.7l.3.6c.1.2.3.5.4.7.1.2.2.4.4.6.2.3.4.5.6.8.1.1.2.3.3.4l.1.1c.1.2.3.3.5.5l.6.6.6.6c.2.2.4.4.6.5l.2.2c.2.2.5.4.7.5.1.1.2.1.2.2.4.3.9.6 1.3.8.4.2.9.4 1.3.6.1.1.3.1.4.2.3.1.7.3 1 .4.2.1.4.1.5.2.3.1.7.2 1 .3.2 0 .4.1.6.1.4.1.7.1 1.1.2.2 0 .3 0 .5.1.5.1 1.1.1 1.6.1h11.3c.8 0 1.5-.2 2.2-.4 1-.4 1.9-1.1 2.5-2 .6-.9 1-2 1-3.1v-11.3c.6-.9.5-1.4.5-1.9zm-5.9 12.6h-11c-6 0-10.9-4.9-10.9-10.9s4.9-10.9 10.9-10.9 10.9 4.9 10.9 10.9v10.9z" style="fill:url(#SVGID_7_)"/>
    <path class="st11" d="M266 815.6h3.6v21.5H266v-21.5zM273.9 818.5c-.4-.4-.7-.9-.7-1.5s.2-1.1.7-1.5c.4-.4 1-.6 1.6-.6.7 0 1.2.2 1.6.6.4.4.7.9.7 1.5s-.2 1.2-.7 1.6c-.4.4-1 .7-1.7.7-.5-.2-1-.4-1.5-.8zm-.1 3.1h3.6V837h-3.6v-15.4zM295 823.2c1.2 1.1 1.8 2.8 1.8 5.1v8.8h-3.6v-8.4c0-1.3-.3-2.4-1-3-.6-.7-1.5-1-2.7-1-1.3 0-2.4.4-3.2 1.2-.8.8-1.2 2-1.2 3.5v7.8h-3.6v-15.4h3.4v2c.6-.7 1.3-1.3 2.3-1.6.9-.4 1.9-.5 3.1-.5 1.9-.2 3.5.3 4.7 1.5zM307.1 830.5l-2.7 2.5v4.1h-3.6v-21.5h3.6v13l7.5-6.9h4.3l-6.4 6.5 7.1 9h-4.4l-5.4-6.7zM317.1 827.5h7.9v3h-7.9v-3zM343.3 821.6V837h-3.4v-2c-.6.7-1.3 1.2-2.2 1.6-.9.4-1.8.6-2.8.6-2.1 0-3.7-.6-4.9-1.7-1.2-1.1-1.8-2.8-1.8-5.1v-8.8h3.6v8.3c0 1.4.3 2.4.9 3.1.6.7 1.5 1 2.7 1 1.3 0 2.3-.4 3.1-1.2.8-.8 1.1-2 1.1-3.5v-7.8h3.7zM360.1 822.5c1.2.7 2.1 1.6 2.8 2.8.7 1.2 1 2.6 1 4.1 0 1.6-.3 2.9-1 4.1-.7 1.2-1.6 2.1-2.8 2.8-1.2.7-2.5 1-4 1-2.1 0-3.7-.7-4.9-2.1v7.5h-3.6v-21h3.4v2c.6-.7 1.3-1.3 2.2-1.6.9-.4 1.8-.5 2.9-.5 1.5-.1 2.8.2 4 .9zm-1.2 10.4c.9-.9 1.3-2.1 1.3-3.5s-.4-2.6-1.3-3.5-2-1.3-3.3-1.3c-.9 0-1.6.2-2.3.6-.7.4-1.2 1-1.6 1.7-.4.7-.6 1.6-.6 2.5 0 1 .2 1.8.6 2.5.4.7 1 1.3 1.6 1.7.7.4 1.5.6 2.3.6 1.4 0 2.5-.4 3.3-1.3zM373.6 836.6c-.5-.5-.7-1-.7-1.7s.2-1.3.7-1.7c.5-.4 1-.7 1.7-.7s1.2.2 1.7.7c.5.4.7 1 .7 1.7s-.2 1.3-.7 1.7c-.5.5-1 .7-1.7.7-.6 0-1.2-.2-1.7-.7zM390.8 836.3c-1.3-.7-2.3-1.6-3-2.8-.7-1.2-1.1-2.6-1.1-4.1 0-1.5.4-2.9 1.1-4.1.7-1.2 1.7-2.1 3-2.8 1.3-.7 2.7-1 4.3-1 1.5 0 2.9.3 4 .9 1.1.6 2 1.5 2.6 2.7l-2.8 1.6c-.4-.7-1-1.2-1.7-1.6-.7-.4-1.4-.5-2.2-.5-1.3 0-2.5.4-3.4 1.3-.9.9-1.3 2-1.3 3.5s.4 2.6 1.3 3.5c.9.9 2 1.3 3.4 1.3.8 0 1.5-.2 2.2-.5.7-.4 1.2-.9 1.7-1.6l2.8 1.6c-.6 1.2-1.5 2-2.6 2.7-1.1.6-2.5.9-4 .9-1.6 0-3-.3-4.3-1zM413.2 821.5v3.4c-.3-.1-.6-.1-.8-.1-1.4 0-2.5.4-3.3 1.2-.8.8-1.2 2-1.2 3.5v7.5h-3.6v-15.4h3.4v2.3c1-1.6 2.9-2.4 5.5-2.4zM430 830.5h-12.1c.2 1.1.8 2 1.7 2.7.9.7 2 1 3.3 1 1.7 0 3.1-.6 4.2-1.7l1.9 2.2c-.7.8-1.6 1.5-2.6 1.9-1.1.4-2.3.6-3.6.6-1.7 0-3.2-.3-4.5-1-1.3-.7-2.3-1.6-3-2.8-.7-1.2-1.1-2.6-1.1-4.1 0-1.5.3-2.9 1-4.1.7-1.2 1.6-2.1 2.8-2.8 1.2-.7 2.6-1 4.1-1 1.5 0 2.8.3 4 1 1.2.7 2.1 1.6 2.8 2.8.7 1.2 1 2.6 1 4.2.1.3.1.7.1 1.1zm-10.7-5.1c-.8.7-1.3 1.6-1.5 2.7h8.8c-.2-1.1-.6-2-1.4-2.7-.8-.7-1.8-1-2.9-1-1.2 0-2.2.3-3 1zM448 821.6V837h-3.4v-2c-.6.7-1.3 1.3-2.2 1.6-.9.4-1.8.5-2.9.5-1.5 0-2.8-.3-4-1-1.2-.7-2.1-1.6-2.8-2.8-.7-1.2-1-2.6-1-4.2s.3-3 1-4.1c.7-1.2 1.6-2.1 2.8-2.8 1.2-.7 2.5-1 4-1 1 0 1.9.2 2.8.5.8.3 1.6.9 2.2 1.5v-1.9h3.5zm-4.8 11.3c.9-.9 1.3-2.1 1.3-3.5s-.4-2.6-1.3-3.5-2-1.3-3.3-1.3c-1.3 0-2.4.4-3.3 1.3-.9.9-1.3 2.1-1.3 3.5s.4 2.6 1.3 3.5c.9.9 2 1.3 3.3 1.3 1.3 0 2.4-.4 3.3-1.3zM461.5 836.2c-.4.3-.9.6-1.5.8-.6.2-1.2.3-1.9.3-1.7 0-3-.4-3.9-1.3-.9-.9-1.4-2.2-1.4-3.9v-7.4h-2.5v-2.9h2.5v-3.5h3.6v3.5h4.1v2.9h-4.1v7.3c0 .8.2 1.3.5 1.7.4.4.9.6 1.6.6.8 0 1.5-.2 2-.6l1 2.5zM477.8 830.5h-12.1c.2 1.1.8 2 1.7 2.7.9.7 2 1 3.3 1 1.7 0 3.1-.6 4.2-1.7l1.9 2.2c-.7.8-1.6 1.5-2.6 1.9-1.1.4-2.3.6-3.6.6-1.7 0-3.2-.3-4.5-1-1.3-.7-2.3-1.6-3-2.8-.7-1.2-1.1-2.6-1.1-4.1 0-1.5.3-2.9 1-4.1.7-1.2 1.6-2.1 2.8-2.8 1.2-.7 2.6-1 4.1-1 1.5 0 2.8.3 4 1 1.2.7 2.1 1.6 2.8 2.8.7 1.2 1 2.6 1 4.2.1.3.1.7.1 1.1zm-10.7-5.1c-.8.7-1.3 1.6-1.5 2.7h8.8c-.2-1.1-.6-2-1.4-2.7-.8-.7-1.8-1-2.9-1-1.2 0-2.2.3-3 1zM487.6 836.6c-.5-.5-.7-1-.7-1.7s.2-1.3.7-1.7c.5-.4 1-.7 1.7-.7s1.2.2 1.7.7c.5.4.7 1 .7 1.7s-.2 1.3-.7 1.7c-.5.5-1 .7-1.7.7s-1.2-.2-1.7-.7zM502.2 818.5c-.4-.4-.7-.9-.7-1.5s.2-1.1.7-1.5c.4-.4 1-.6 1.6-.6.7 0 1.2.2 1.6.6.4.4.7.9.7 1.5s-.2 1.2-.7 1.6-1 .7-1.7.7c-.5-.2-1.1-.4-1.5-.8zm-.2 3.1h3.6V837H502v-15.4zM523.2 823.2c1.2 1.1 1.8 2.8 1.8 5.1v8.8h-3.6v-8.4c0-1.3-.3-2.4-1-3-.6-.7-1.5-1-2.7-1-1.3 0-2.4.4-3.2 1.2-.8.8-1.2 2-1.2 3.5v7.8h-3.6v-15.4h3.4v2c.6-.7 1.3-1.3 2.3-1.6.9-.4 1.9-.5 3.1-.5 2-.2 3.6.3 4.7 1.5zM538.3 836.2c-.4.3-.9.6-1.5.8-.6.2-1.2.3-1.9.3-1.7 0-3-.4-3.9-1.3-.9-.9-1.4-2.2-1.4-3.9v-7.4H527v-2.9h2.5v-3.5h3.6v3.5h4.1v2.9h-4.1v7.3c0 .8.2 1.3.5 1.7.4.4.9.6 1.6.6.8 0 1.5-.2 2-.6l1.1 2.5zM554.6 830.5h-12.1c.2 1.1.8 2 1.7 2.7.9.7 2 1 3.3 1 1.7 0 3.1-.6 4.2-1.7l1.9 2.2c-.7.8-1.6 1.5-2.6 1.9-1.1.4-2.3.6-3.6.6-1.7 0-3.2-.3-4.5-1-1.3-.7-2.3-1.6-3-2.8-.7-1.2-1.1-2.6-1.1-4.1 0-1.5.3-2.9 1-4.1.7-1.2 1.6-2.1 2.8-2.8 1.2-.7 2.6-1 4.1-1 1.5 0 2.8.3 4 1 1.2.7 2.1 1.6 2.8 2.8.7 1.2 1 2.6 1 4.2.2.3.2.7.1 1.1zm-10.7-5.1c-.8.7-1.3 1.6-1.5 2.7h8.8c-.2-1.1-.6-2-1.4-2.7-.8-.7-1.8-1-2.9-1-1.2 0-2.2.3-3 1zM566.5 821.5v3.4c-.3-.1-.6-.1-.8-.1-1.4 0-2.5.4-3.3 1.2-.8.8-1.2 2-1.2 3.5v7.5h-3.6v-15.4h3.4v2.3c1.1-1.6 2.9-2.4 5.5-2.4zM583.9 821.6V837h-3.4v-2c-.6.7-1.3 1.3-2.2 1.6-.9.4-1.8.5-2.9.5-1.5 0-2.8-.3-4-1-1.2-.7-2.1-1.6-2.8-2.8-.7-1.2-1-2.6-1-4.2s.3-3 1-4.1c.7-1.2 1.6-2.1 2.8-2.8 1.2-.7 2.5-1 4-1 1 0 1.9.2 2.8.5.8.3 1.6.9 2.2 1.5v-1.9h3.5zm-4.8 11.3c.9-.9 1.3-2.1 1.3-3.5s-.4-2.6-1.3-3.5c-.9-.9-2-1.3-3.3-1.3-1.3 0-2.4.4-3.3 1.3s-1.3 2.1-1.3 3.5.4 2.6 1.3 3.5 2 1.3 3.3 1.3c1.3 0 2.4-.4 3.3-1.3zM590.9 836.3c-1.3-.7-2.3-1.6-3-2.8-.7-1.2-1.1-2.6-1.1-4.1 0-1.5.4-2.9 1.1-4.1.7-1.2 1.7-2.1 3-2.8 1.3-.7 2.7-1 4.3-1 1.5 0 2.9.3 4 .9 1.1.6 2 1.5 2.6 2.7l-2.8 1.6c-.4-.7-1-1.2-1.7-1.6s-1.4-.5-2.2-.5c-1.3 0-2.5.4-3.4 1.3-.9.9-1.3 2-1.3 3.5s.4 2.6 1.3 3.5c.9.9 2 1.3 3.4 1.3.8 0 1.5-.2 2.2-.5s1.2-.9 1.7-1.6l2.8 1.6c-.6 1.2-1.5 2-2.6 2.7-1.1.6-2.5.9-4 .9-1.6 0-3.1-.3-4.3-1zM613.8 836.2c-.4.3-.9.6-1.5.8-.6.2-1.2.3-1.9.3-1.7 0-3-.4-3.9-1.3-.9-.9-1.4-2.2-1.4-3.9v-7.4h-2.5v-2.9h2.5v-3.5h3.6v3.5h4.1v2.9h-4.1v7.3c0 .8.2 1.3.5 1.7.4.4.9.6 1.6.6.8 0 1.5-.2 2-.6l1 2.5zM623.1 836.6c-.5-.5-.7-1-.7-1.7s.2-1.3.7-1.7c.5-.4 1-.7 1.7-.7s1.2.2 1.7.7c.5.4.7 1 .7 1.7s-.2 1.3-.7 1.7c-.5.5-1 .7-1.7.7s-1.3-.2-1.7-.7zM637.6 818.5c-.4-.4-.7-.9-.7-1.5s.2-1.1.7-1.5c.4-.4 1-.6 1.6-.6.7 0 1.2.2 1.6.6.4.4.7.9.7 1.5s-.2 1.2-.7 1.6c-.4.4-1 .7-1.7.7-.5-.2-1-.4-1.5-.8zm-.1 3.1h3.6V837h-3.6v-15.4zM658.7 823.2c1.2 1.1 1.8 2.8 1.8 5.1v8.8h-3.6v-8.4c0-1.3-.3-2.4-1-3-.6-.7-1.5-1-2.7-1-1.3 0-2.4.4-3.2 1.2-.8.8-1.2 2-1.2 3.5v7.8h-3.6v-15.4h3.4v2c.6-.7 1.3-1.3 2.3-1.6.9-.4 1.9-.5 3.1-.5 2-.2 3.5.3 4.7 1.5zM665.6 836.8c-1.2-.3-2.1-.7-2.9-1.2l1.4-2.7c.7.5 1.5.8 2.5 1.1 1 .3 1.9.4 2.9.4 2.2 0 3.2-.6 3.2-1.7 0-.5-.3-.9-.8-1.1-.5-.2-1.4-.4-2.6-.6-1.3-.2-2.3-.4-3.1-.7-.8-.2-1.5-.7-2.1-1.3-.6-.6-.9-1.5-.9-2.6 0-1.5.6-2.6 1.8-3.5 1.2-.9 2.9-1.3 5-1.3 1.1 0 2.1.1 3.2.4 1.1.2 1.9.6 2.6 1l-1.4 2.7c-1.3-.8-2.8-1.2-4.4-1.2-1.1 0-1.9.2-2.4.5s-.8.7-.8 1.3c0 .6.3 1 .9 1.2.6.2 1.5.5 2.7.7 1.2.2 2.2.4 3 .7.8.3 1.5.7 2 1.3.6.6.9 1.4.9 2.5 0 1.4-.6 2.6-1.9 3.5-1.3.9-3 1.3-5.1 1.3-1.3-.2-2.5-.4-3.7-.7zM691.4 822.5c1.2.7 2.1 1.6 2.8 2.8.7 1.2 1 2.6 1 4.1 0 1.6-.3 2.9-1 4.1-.7 1.2-1.6 2.1-2.8 2.8-1.2.7-2.5 1-4 1-2.1 0-3.7-.7-4.9-2.1v7.5h-3.6v-21h3.4v2c.6-.7 1.3-1.3 2.2-1.6.9-.4 1.8-.5 2.9-.5 1.4-.1 2.8.2 4 .9zm-1.2 10.4c.9-.9 1.3-2.1 1.3-3.5s-.4-2.6-1.3-3.5c-.9-.9-2-1.3-3.3-1.3-.9 0-1.6.2-2.3.6-.7.4-1.2 1-1.6 1.7-.4.7-.6 1.6-.6 2.5 0 1 .2 1.8.6 2.5.4.7 1 1.3 1.6 1.7.7.4 1.5.6 2.3.6 1.4 0 2.5-.4 3.3-1.3zM698.2 818.5c-.4-.4-.7-.9-.7-1.5s.2-1.1.7-1.5c.4-.4 1-.6 1.6-.6.7 0 1.2.2 1.6.6.4.4.7.9.7 1.5s-.2 1.2-.7 1.6c-.4.4-1 .7-1.7.7-.5-.2-1-.4-1.5-.8zm-.2 3.1h3.6V837H698v-15.4zM714.7 821.5v3.4c-.3-.1-.6-.1-.8-.1-1.4 0-2.5.4-3.3 1.2-.8.8-1.2 2-1.2 3.5v7.5h-3.6v-15.4h3.4v2.3c1.1-1.6 2.9-2.4 5.5-2.4zM731.5 830.5h-12.1c.2 1.1.8 2 1.7 2.7.9.7 2 1 3.3 1 1.7 0 3.1-.6 4.2-1.7l1.9 2.2c-.7.8-1.6 1.5-2.6 1.9-1.1.4-2.3.6-3.6.6-1.7 0-3.2-.3-4.5-1-1.3-.7-2.3-1.6-3-2.8-.7-1.2-1.1-2.6-1.1-4.1 0-1.5.3-2.9 1-4.1.7-1.2 1.6-2.1 2.8-2.8 1.2-.7 2.6-1 4.1-1 1.5 0 2.8.3 4 1 1.2.7 2.1 1.6 2.8 2.8.7 1.2 1 2.6 1 4.2.2.3.2.7.1 1.1zm-10.6-5.1c-.8.7-1.3 1.6-1.5 2.7h8.8c-.2-1.1-.6-2-1.4-2.7-.8-.7-1.8-1-2.9-1-1.3 0-2.2.3-3 1z"/>
</svg>
